<svg width="57" height="56" viewBox="0 0 57 56" fill="none" xmlns="http://www.w3.org/2000/svg">
<path fill-rule="evenodd" clip-rule="evenodd" d="M32.9546 0.928955C32.5717 0.928955 32.2161 1.01391 31.8878 1.12717C32.5853 1.60855 32.9683 2.24568 33.1598 2.96776C33.1735 3.06687 33.2008 3.13766 33.2145 3.23676C33.2282 3.32172 33.2418 3.40667 33.2418 3.49162C33.2966 4.73755 32.9273 4.89329 32.6674 5.62953C32.2708 6.57814 32.3802 7.59754 32.8589 8.41873C32.8999 8.51783 32.9546 8.6311 33.023 8.73021C32.5033 5.14814 35.3891 4.61013 35.9225 3.49162C35.9635 2.51469 35.184 1.86341 34.5685 1.41034C33.9804 1.04222 33.447 0.928955 32.9546 0.928955ZM37.3039 1.73598C37.2492 2.06162 37.2902 1.97667 37.2766 2.14657C37.2629 2.25984 37.2629 2.40143 37.2492 2.51469C37.2219 2.62796 37.1945 2.74122 37.1535 2.85449C37.1261 2.96776 37.0851 3.08103 37.0441 3.19429C36.9893 3.30756 36.9483 3.40667 36.8936 3.51993C36.8526 3.57659 36.8252 3.6332 36.7842 3.68983C36.7569 3.73231 36.7295 3.77478 36.7021 3.81726C36.6338 3.91637 36.5654 4.01548 36.497 4.10042C36.4149 4.18538 36.3465 4.28448 36.2508 4.35528V4.36945C36.1687 4.44025 36.0867 4.5252 35.9909 4.59599C35.7037 4.82252 35.3755 4.99242 35.0746 5.2048C34.9788 5.27559 34.8831 5.33222 34.801 5.41717C34.7053 5.48796 34.6232 5.55875 34.5412 5.6437C34.4454 5.72865 34.3771 5.81361 34.295 5.91272C34.2266 5.99767 34.1446 6.09677 34.0898 6.19588C34.0215 6.29499 33.9531 6.3941 33.8984 6.49321C33.8436 6.60647 33.8026 6.70558 33.7479 6.81885C33.7069 6.93211 33.6659 7.03122 33.6385 7.14449C33.5975 7.27191 33.5701 7.38518 33.5428 7.49845C33.5291 7.55511 33.5291 7.62587 33.5154 7.68251C33.5017 7.73916 33.5017 7.79577 33.4881 7.85241C33.4881 7.96567 33.4744 8.0931 33.4744 8.20636C33.4744 8.29132 33.4744 8.37627 33.4881 8.46122C33.4881 8.57448 33.5018 8.68775 33.5291 8.81517C33.5428 8.92844 33.5702 9.04171 33.5975 9.15498C33.6385 9.26824 33.6659 9.38151 33.7069 9.49477C33.7343 9.56557 33.7753 9.63636 33.8027 9.69299L30.657 8.4329C30.1236 8.27716 29.6038 8.13558 29.0704 8.00815C28.7832 7.93736 28.496 7.86657 28.2088 7.79577C27.3882 7.62587 26.5539 7.49845 25.7196 7.4135C25.6923 7.4135 25.6786 7.39932 25.6512 7.39932C24.8306 7.31437 24.0236 7.2719 23.203 7.2719C22.6012 7.2719 21.9994 7.30019 21.4113 7.34269C20.577 7.39935 19.7427 7.51259 18.9085 7.65417C18.7033 7.68247 18.4981 7.72497 18.293 7.76744C17.869 7.85239 17.4587 7.9515 17.0621 8.05061C16.8569 8.10726 16.6518 8.16388 16.4466 8.22051C16.2414 8.30545 16.05 8.40457 15.8585 8.48952C15.708 8.56031 15.5576 8.6311 15.4072 8.70189C15.3798 8.71607 15.3524 8.71607 15.3388 8.73019C15.202 8.80098 15.0789 8.85761 14.9558 8.9284C14.9148 8.94258 14.8874 8.9567 14.8601 8.97088C14.7096 9.04167 14.5592 9.12662 14.4361 9.19741C14.3403 9.23989 14.2446 9.29652 14.1625 9.339C14.1215 9.36729 14.0668 9.39565 14.0395 9.40979C13.9164 9.48058 13.7933 9.55137 13.6839 9.62217C13.5608 9.69296 13.4513 9.76374 13.3556 9.83453C13.2599 9.90533 13.1641 9.96196 13.0821 10.0327C13.0684 10.0469 13.0547 10.0469 13.041 10.061C12.959 10.1177 12.8632 10.1885 12.7812 10.2593C12.7812 10.2593 12.7675 10.2734 12.7538 10.2876C12.6855 10.3442 12.6171 10.4008 12.5487 10.4575C12.5214 10.4716 12.494 10.4999 12.4666 10.5141C12.3982 10.5708 12.3299 10.6415 12.2615 10.6982C12.2478 10.7265 12.2204 10.7407 12.2067 10.7548C12.1247 10.8398 12.0426 10.9106 11.9606 10.9955C11.9469 10.9955 11.9469 11.0097 11.9332 11.0238C11.8512 11.0946 11.7691 11.1796 11.687 11.2645C11.6733 11.2787 11.6733 11.2928 11.6597 11.2928C11.5913 11.3636 11.5229 11.4344 11.4545 11.5193C11.4272 11.5476 11.3862 11.576 11.3588 11.6043C11.2904 11.6892 11.2084 11.7742 11.1263 11.8591C11.1126 11.8874 11.0853 11.9016 11.0716 11.9299C10.9622 12.0432 10.8664 12.1565 10.757 12.2697C10.7433 12.2839 10.7297 12.298 10.716 12.3122C10.4971 12.5529 10.2646 12.7936 10.0185 13.006C9.77226 13.2325 9.5124 13.4449 9.25254 13.6289C8.979 13.8272 8.71914 13.997 8.43192 14.1669C8.15838 14.3227 7.87116 14.4643 7.57027 14.5917C7.28305 14.7191 6.98216 14.8324 6.68127 14.9315C6.10684 15.0589 5.51873 15.2996 5.01268 15.3421C4.90326 15.3421 4.78017 15.3704 4.67076 15.3846C4.54766 15.4129 4.43825 15.4412 4.32883 15.4695C4.21942 15.512 4.11 15.5545 4.00058 15.5969C3.89117 15.6394 3.78176 15.696 3.67234 15.7527C3.5766 15.8235 3.46719 15.8801 3.37144 15.9509C3.27571 16.0217 3.17997 16.1066 3.0979 16.1916C3.00217 16.2624 2.90643 16.3615 2.82436 16.4464C2.7423 16.5456 2.66024 16.6305 2.59186 16.7296C2.52347 16.8429 2.44141 16.942 2.3867 17.0553C2.31832 17.1544 2.24993 17.2676 2.19522 17.3809C2.14049 17.5083 2.08581 17.6216 2.04478 17.749C2.00375 17.8623 1.96272 17.9897 1.92169 18.1171C1.89435 18.2304 1.86696 18.3437 1.8533 18.4569C1.8533 18.4711 1.8396 18.4852 1.8396 18.4994C1.81227 18.6268 1.81227 18.7967 1.79857 18.8817C1.78487 18.9808 1.77124 19.0657 1.77124 19.1648C1.77124 19.2215 1.77124 19.2923 1.78494 19.3489C1.79864 19.448 1.81227 19.533 1.83967 19.6179C1.867 19.7029 1.8944 19.7878 1.9354 19.8728V19.8869C1.97643 19.9719 2.03114 20.0568 2.08585 20.1418C2.14058 20.2267 2.19527 20.3117 2.26365 20.3967C2.33204 20.4674 2.4141 20.5524 2.49616 20.6232C2.57822 20.7081 2.66029 20.7789 2.75602 20.8497C3.08427 21.147 3.16633 21.2461 3.59032 21.4727C3.6587 21.5152 3.72709 21.5435 3.80915 21.5859C3.82285 21.5859 3.83649 21.6001 3.85018 21.6001C3.85018 21.6284 3.85018 21.6426 3.86388 21.6709C3.87758 21.7842 3.90491 21.8974 3.93227 22.0107C3.9596 22.1381 4.00066 22.2514 4.04169 22.3505C4.08272 22.4355 4.11007 22.5204 4.1511 22.6054C4.1648 22.6337 4.17844 22.662 4.19213 22.6762C4.24686 22.7894 4.30155 22.8885 4.35625 22.9876C4.42464 23.0868 4.49302 23.1859 4.56141 23.285C4.62979 23.3699 4.71185 23.469 4.79392 23.554C4.87598 23.6389 4.95804 23.7097 5.05378 23.7947C5.05378 23.7947 5.06748 23.8089 5.08111 23.8089C5.16318 23.8797 5.24524 23.9505 5.3273 24.0071C5.42304 24.0779 5.51878 24.1345 5.62819 24.1911C5.72393 24.2478 5.83335 24.3044 5.94276 24.3469C6.02483 24.3894 6.12056 24.4177 6.2163 24.446C6.23 24.4602 6.24363 24.4602 6.27103 24.4743C6.32576 24.4885 6.39412 24.5026 6.44883 24.5168C6.4078 25.2813 6.3941 26.0034 6.50356 26.2582C6.62665 26.5414 7.22844 25.6777 7.83022 24.6867C7.74816 25.6636 7.69345 26.8104 7.83022 27.1502C7.98067 27.5042 8.80129 26.3998 9.51249 25.1822C19.2095 22.8602 28.0585 29.7978 28.9885 39.5954C28.8107 38.0663 26.9916 37.2168 26.1574 37.4292C25.747 38.4769 25.0495 39.8219 23.928 40.6573C24.0238 39.7228 23.9827 38.7601 23.7912 37.8256C23.4904 39.1282 22.9022 40.3458 22.0953 41.3935C20.796 41.4926 19.4967 40.8413 18.8128 39.8644C18.7581 39.8219 18.7444 39.737 18.7034 39.6804C18.6624 39.5812 18.6213 39.4821 18.594 39.383C18.553 39.2839 18.5256 39.1848 18.5119 39.0857C18.4982 38.9866 18.4982 38.8875 18.4982 38.7742C18.4982 38.7034 18.4982 38.6326 18.4982 38.5618C18.5119 38.4627 18.5393 38.3636 18.5666 38.2645C18.5939 38.1654 18.6213 38.0663 18.6624 37.9672C18.7171 37.8681 18.7581 37.769 18.8265 37.6699C19.059 36.9903 19.059 36.4381 18.635 36.1124C18.5529 36.0558 18.4709 36.0133 18.3751 35.9709C18.3204 35.9567 18.252 35.9284 18.1973 35.9142C18.1563 35.9 18.129 35.8859 18.0879 35.8717C17.9922 35.8434 17.8964 35.8151 17.8007 35.8009C17.705 35.7726 17.6092 35.7585 17.5135 35.7585C17.4178 35.7443 17.3083 35.7302 17.2126 35.7302C17.1442 35.7302 17.0758 35.7443 17.0074 35.7443C16.898 35.7443 16.8023 35.7585 16.7065 35.7868C16.6108 35.801 16.5151 35.8151 16.4193 35.8435C16.3236 35.8718 16.2279 35.9001 16.1321 35.9426C16.0364 35.9851 15.9543 36.0275 15.8586 36.07C15.7765 36.1125 15.6945 36.1691 15.5987 36.2116C12.412 38.3637 14.3131 43.404 16.4877 44.8623C15.6671 45.0181 14.8328 45.2022 14.6003 45.3862C14.5866 45.4004 14.573 45.4145 14.573 45.4145C15.1611 45.7826 15.7765 46.0941 16.4193 46.3631C17.2947 46.6604 18.2247 46.9294 18.635 47.0427V47.0569C19.7702 47.2976 20.9191 47.3825 22.0816 47.3117C28.1405 46.8728 33.1053 42.1015 34.0079 35.8152C34.0353 35.9426 34.0627 36.0558 34.09 36.1833C34.131 36.4381 34.1857 36.7071 34.2131 36.9761V36.9903C34.2404 37.1178 34.2541 37.2452 34.2678 37.3585V37.4151C34.2815 37.5425 34.2951 37.67 34.2951 37.7832C34.3088 37.939 34.3225 38.0947 34.3225 38.2505V38.477C34.3225 38.5478 34.3362 38.6327 34.3362 38.7035C34.3362 38.7885 34.3225 38.8734 34.3225 38.9584V39.1566C34.3225 39.2557 34.3088 39.3406 34.3088 39.4398C34.3088 39.4964 34.3088 39.553 34.2951 39.6238C34.2951 39.7229 34.2814 39.822 34.2814 39.9353C34.2677 39.9778 34.2677 40.0202 34.2677 40.0627C34.254 40.176 34.2403 40.2751 34.2266 40.3884C34.2266 40.4308 34.2266 40.4733 34.2129 40.5158C34.1992 40.6574 34.1719 40.7848 34.1582 40.9264V40.9406V40.9548C34.1309 41.0822 34.1035 41.2238 34.0761 41.3512V41.3937C34.0488 41.5211 34.0214 41.6485 33.9941 41.7759C33.9941 41.7901 33.9804 41.8184 33.9804 41.8326C33.9531 41.96 33.9257 42.0874 33.8847 42.2149V42.2573C33.8436 42.3989 33.8026 42.5263 33.7752 42.6538C33.7615 42.6679 33.7615 42.6821 33.7615 42.6821C33.7205 42.8237 33.6795 42.9652 33.6385 43.1068C33.5837 43.2484 33.5427 43.3758 33.488 43.5174C33.4333 43.659 33.3923 43.8006 33.3376 43.928C33.2828 44.0696 33.2281 44.197 33.1734 44.3386H33.1597C33.105 44.466 33.0503 44.6076 32.9819 44.735C32.9682 44.7775 32.9546 44.8058 32.9409 44.8341C32.9272 44.8483 32.9272 44.8624 32.9136 44.8766C32.0246 46.7314 30.7116 48.3596 29.0703 49.6338C28.9609 49.7046 28.8515 49.7896 28.7421 49.8745C28.7147 49.9028 28.6737 49.917 28.6463 49.9453C28.5506 50.0161 28.4549 50.0869 28.3455 50.1577L28.3865 50.2426H28.4002C28.5916 50.2143 28.7831 50.186 28.9746 50.1577H28.9883C29.3439 50.101 29.6995 50.0302 30.0551 49.9595C30.1508 49.9453 30.2603 49.917 30.356 49.8887C30.4244 49.8745 30.4791 49.8604 30.5475 49.8462C30.6432 49.832 30.739 49.8037 30.8347 49.7895C30.9168 49.7612 30.9988 49.7471 31.0809 49.7187C32.4486 49.3789 33.7752 48.9117 35.0472 48.3595C32.8726 51.4319 29.9594 53.9096 26.5538 55.5378C28.1267 55.4246 29.6995 55.1555 31.2176 54.7025C36.7295 53.0176 41.366 49.1807 44.1424 44.0129C43.5816 47.2835 42.3233 50.3983 40.4633 53.1167C41.7899 52.2106 43.0072 51.1629 44.115 49.9736C47.1787 46.6605 49.1892 42.4555 49.873 37.939C50.338 40.176 50.4748 42.4838 50.2697 44.7633C60.1444 30.5059 51.0903 15.7246 47.3018 11.831C47.288 11.8027 47.2744 11.7885 47.2744 11.7602C47.2607 11.7744 47.2607 11.7744 47.2607 11.7885C47.2607 11.7743 47.2607 11.7743 47.247 11.7602C47.247 11.9301 47.2333 12.1 47.2197 12.2699C47.1786 12.5956 47.1376 12.907 47.0829 13.2185C47.0145 13.53 46.9325 13.8415 46.8504 14.153C46.7547 14.4503 46.6453 14.7618 46.5222 15.0591C46.3991 15.3423 46.2623 15.6396 46.1118 15.9228C45.9614 16.1918 45.7973 16.4749 45.6195 16.7298C45.4417 16.9988 45.2502 17.2537 45.0587 17.4943C44.8536 17.7492 44.6347 17.9757 44.4159 18.2023C44.2791 18.3297 44.156 18.443 44.0193 18.5562C43.9099 18.6553 43.8141 18.7403 43.7047 18.8394C43.4585 19.0376 43.2123 19.2217 42.9388 19.3916C42.6789 19.5615 42.4054 19.7314 42.1319 19.8729C41.8446 20.0145 41.5574 20.142 41.2702 20.2694C40.983 20.3826 40.6821 20.4818 40.3812 20.5667C40.0803 20.6517 39.7657 20.7224 39.4648 20.7791C39.1503 20.8357 38.8357 20.864 38.5348 20.8923C38.316 20.9065 38.0971 20.9206 37.8783 20.9206C37.5637 20.9206 37.2492 20.8923 36.9483 20.864C36.6337 20.8357 36.3191 20.7932 36.0182 20.7224C35.7037 20.6657 35.4028 20.5808 35.1019 20.4817H35.0882C35.3891 20.4534 35.69 20.4251 35.9909 20.3684C36.3054 20.3118 36.6063 20.241 36.9072 20.1561C37.2081 20.0711 37.509 19.972 37.7962 19.8587C38.0971 19.7455 38.3843 19.6039 38.6579 19.4623C38.9451 19.3207 39.205 19.165 39.4785 18.9951C39.7384 18.811 39.9982 18.627 40.2444 18.4287C40.4906 18.2305 40.7231 18.0182 40.9419 17.7916C41.1744 17.5792 41.3796 17.3386 41.5848 17.0979C41.7899 16.843 41.9814 16.5882 42.1592 16.3333C42.1865 16.2908 42.2139 16.2342 42.2413 16.1917C42.378 15.9652 42.5148 15.7387 42.6379 15.5121C42.7883 15.229 42.9251 14.9458 43.0482 14.6485C43.1713 14.3511 43.2807 14.0538 43.3764 13.7423C43.4722 13.445 43.5406 13.1335 43.6089 12.822C43.6637 12.4964 43.7184 12.1849 43.7457 11.8734C43.773 11.5478 43.8004 11.2221 43.8004 10.9107C43.8004 10.6841 43.7867 10.4576 43.7731 10.2311C43.7458 9.90543 43.7047 9.59394 43.6637 9.28246C43.609 8.95682 43.5406 8.64534 43.4585 8.33385C43.3628 8.03653 43.2671 7.72504 43.1576 7.42772C43.0482 7.13039 42.9115 6.83306 42.7747 6.54989C42.6242 6.26673 42.4738 5.98356 42.3097 5.71456C42.1319 5.44555 41.9541 5.1907 41.7626 4.93584C41.5574 4.69515 41.3523 4.45446 41.1335 4.21377C41.024 4.10051 40.9009 3.97308 40.7779 3.85982C40.1624 3.36427 39.5196 2.89704 38.8768 2.47229C38.781 2.41564 38.699 2.37318 38.6032 2.33071C38.1519 2.03339 37.7279 1.87756 37.3039 1.73598Z" fill="black"/>
</svg>
