<svg width="56" height="56" viewBox="0 0 56 56" fill="none" xmlns="http://www.w3.org/2000/svg">
<path d="M49.2333 25.7834L30.2167 6.76671C29.6333 6.18337 28.8167 5.83337 28 5.83337C27.1833 5.83337 26.3667 6.18337 25.7833 6.76671L21.7 10.85L26.4833 15.6334C26.95 15.4 27.4167 15.2834 28 15.2834C29.9833 15.2834 31.5 16.8 31.5 18.7834C31.5 19.3667 31.3833 19.8334 31.15 20.3L35.8167 24.9667C36.2833 24.7334 36.75 24.6167 37.3333 24.6167C39.3167 24.6167 40.8333 26.1334 40.8333 28.1167C40.8333 30.1 39.3167 31.6167 37.3333 31.6167C35.35 31.6167 33.8333 30.1 33.8333 28.1167C33.8333 27.5334 33.95 27.0667 34.1833 26.6L29.5167 21.9334C29.4 21.9334 29.2833 22.05 29.1667 22.05V34.1834C30.5667 34.65 31.5 35.9334 31.5 37.45C31.5 39.4334 29.9833 40.95 28 40.95C26.0167 40.95 24.5 39.4334 24.5 37.45C24.5 35.9334 25.4333 34.65 26.8333 34.1834V21.9334C25.4333 21.4667 24.5 20.1834 24.5 18.6667C24.5 18.0834 24.6167 17.6167 24.85 17.15L20.0667 12.3667L6.76666 25.7834C6.18333 26.3667 5.83333 27.1834 5.83333 28C5.83333 28.8167 6.18333 29.6334 6.76666 30.2167L25.7833 49.2334C26.3667 49.8167 27.1833 50.1667 28 50.1667C28.8167 50.1667 29.6333 49.8167 30.2167 49.2334L49.2333 30.2167C49.8167 29.6334 50.1667 28.8167 50.1667 28C50.1667 27.1834 49.8167 26.3667 49.2333 25.7834Z" fill="black"/>
</svg>
