<svg width="56" height="56" viewBox="0 0 56 56" fill="none" xmlns="http://www.w3.org/2000/svg">
<path fill-rule="evenodd" clip-rule="evenodd" d="M32.4546 0.928955C32.0717 0.928955 31.7161 1.01391 31.3878 1.12717C32.0853 1.60855 32.4683 2.24568 32.6598 2.96776C32.6735 3.06687 32.7008 3.13766 32.7145 3.23676C32.7282 3.32172 32.7418 3.40667 32.7418 3.49162C32.7966 4.73755 32.4273 4.89329 32.1674 5.62953C31.7708 6.57814 31.8802 7.59754 32.3589 8.41873C32.3999 8.51783 32.4546 8.6311 32.523 8.73021C32.0033 5.14814 34.8891 4.61013 35.4225 3.49162C35.4636 2.51469 34.684 1.86341 34.0685 1.41034C33.4804 1.04222 32.947 0.928955 32.4546 0.928955ZM36.8039 1.73598C36.7492 2.06162 36.7902 1.97667 36.7766 2.14657C36.7629 2.25984 36.7629 2.40143 36.7492 2.51469C36.7219 2.62796 36.6945 2.74122 36.6535 2.85449C36.6262 2.96776 36.5851 3.08103 36.5441 3.19429C36.4893 3.30756 36.4483 3.40667 36.3936 3.51993C36.3526 3.57659 36.3253 3.6332 36.2842 3.68983C36.2569 3.73231 36.2295 3.77478 36.2022 3.81726C36.1338 3.91637 36.0654 4.01548 35.997 4.10042C35.9149 4.18538 35.8466 4.28448 35.7508 4.35528V4.36945C35.6688 4.44025 35.5867 4.5252 35.491 4.59599C35.2037 4.82252 34.8755 4.99242 34.5746 5.2048C34.4789 5.27559 34.3831 5.33222 34.3011 5.41717C34.2053 5.48796 34.1233 5.55875 34.0412 5.6437C33.9455 5.72865 33.8771 5.81361 33.795 5.91272C33.7266 5.99767 33.6446 6.09677 33.5899 6.19588C33.5215 6.29499 33.4531 6.3941 33.3984 6.49321C33.3437 6.60647 33.3026 6.70558 33.2479 6.81885C33.2069 6.93211 33.1659 7.03122 33.1385 7.14449C33.0975 7.27191 33.0701 7.38518 33.0428 7.49845C33.0291 7.55511 33.0291 7.62587 33.0154 7.68251C33.0017 7.73916 33.0017 7.79577 32.9881 7.85241C32.9881 7.96567 32.9744 8.0931 32.9744 8.20636C32.9744 8.29132 32.9744 8.37627 32.9881 8.46122C32.9881 8.57448 33.0018 8.68775 33.0291 8.81517C33.0428 8.92844 33.0702 9.04171 33.0975 9.15498C33.1386 9.26824 33.1659 9.38151 33.2069 9.49477C33.2343 9.56557 33.2753 9.63636 33.3027 9.69299L30.157 8.4329C29.6236 8.27716 29.1039 8.13558 28.5705 8.00815C28.2832 7.93736 27.996 7.86657 27.7088 7.79577C26.8882 7.62587 26.0539 7.49845 25.2196 7.4135C25.1923 7.4135 25.1786 7.39932 25.1512 7.39932C24.3306 7.31437 23.5237 7.2719 22.703 7.2719C22.1013 7.2719 21.4995 7.30019 20.9114 7.34269C20.0771 7.39935 19.2428 7.51259 18.4085 7.65417C18.2033 7.68247 17.9982 7.72497 17.793 7.76744C17.369 7.85239 16.9587 7.9515 16.5621 8.05061C16.3569 8.10726 16.1518 8.16388 15.9466 8.22051C15.7415 8.30545 15.55 8.40457 15.3585 8.48952C15.2081 8.56031 15.0576 8.6311 14.9072 8.70189C14.8798 8.71607 14.8524 8.71607 14.8388 8.73019C14.702 8.80098 14.5789 8.85761 14.4558 8.9284C14.4148 8.94258 14.3874 8.9567 14.3601 8.97088C14.2096 9.04167 14.0592 9.12662 13.9361 9.19741C13.8404 9.23989 13.7446 9.29652 13.6626 9.339C13.6215 9.36729 13.5668 9.39565 13.5395 9.40979C13.4164 9.48058 13.2933 9.55137 13.1839 9.62217C13.0608 9.69296 12.9514 9.76374 12.8556 9.83453C12.7599 9.90533 12.6641 9.96196 12.5821 10.0327C12.5684 10.0469 12.5547 10.0469 12.541 10.061C12.459 10.1177 12.3633 10.1885 12.2812 10.2593C12.2812 10.2593 12.2675 10.2734 12.2539 10.2876C12.1855 10.3442 12.1171 10.4008 12.0487 10.4575C12.0214 10.4716 11.994 10.4999 11.9666 10.5141C11.8983 10.5708 11.8299 10.6415 11.7615 10.6982C11.7478 10.7265 11.7205 10.7407 11.7068 10.7548C11.6247 10.8398 11.5426 10.9106 11.4606 10.9955C11.4469 10.9955 11.4469 11.0097 11.4332 11.0238C11.3512 11.0946 11.2691 11.1796 11.1871 11.2645C11.1734 11.2787 11.1734 11.2928 11.1597 11.2928C11.0913 11.3636 11.023 11.4344 10.9546 11.5193C10.9272 11.5476 10.8862 11.576 10.8588 11.6043C10.7904 11.6892 10.7084 11.7742 10.6263 11.8591C10.6126 11.8874 10.5853 11.9016 10.5716 11.9299C10.4622 12.0432 10.3664 12.1565 10.257 12.2697C10.2433 12.2839 10.2297 12.298 10.216 12.3122C9.99716 12.5529 9.76465 12.7936 9.51847 13.006C9.27228 13.2325 9.01242 13.4449 8.75255 13.6289C8.47901 13.8272 8.21915 13.997 7.93194 14.1669C7.6584 14.3227 7.37118 14.4643 7.07029 14.5917C6.78307 14.7191 6.48218 14.8324 6.18129 14.9315C5.60685 15.0589 5.01874 15.2996 4.51269 15.3421C4.40328 15.3421 4.28019 15.3704 4.17077 15.3846C4.04768 15.4129 3.93826 15.4412 3.82885 15.4695C3.71943 15.512 3.61001 15.5545 3.5006 15.5969C3.39119 15.6394 3.28177 15.696 3.17236 15.7527C3.07661 15.8235 2.9672 15.8801 2.87146 15.9509C2.77572 16.0217 2.67998 16.1066 2.59792 16.1916C2.50218 16.2624 2.40644 16.3615 2.32438 16.4464C2.24232 16.5456 2.16026 16.6305 2.09187 16.7296C2.02349 16.8429 1.94143 16.942 1.88672 17.0553C1.81833 17.1544 1.74995 17.2676 1.69524 17.3809C1.64051 17.5083 1.58583 17.6216 1.54479 17.749C1.50376 17.8623 1.46273 17.9897 1.4217 18.1171C1.39437 18.2304 1.36697 18.3437 1.35332 18.4569C1.35332 18.4711 1.33962 18.4852 1.33962 18.4994C1.31229 18.6268 1.31229 18.7967 1.29859 18.8817C1.28489 18.9808 1.27126 19.0657 1.27126 19.1648C1.27126 19.2215 1.27126 19.2923 1.28495 19.3489C1.29865 19.448 1.31229 19.533 1.33968 19.6179C1.36702 19.7029 1.39441 19.7878 1.43542 19.8728V19.8869C1.47645 19.9719 1.53116 20.0568 1.58586 20.1418C1.64059 20.2267 1.69528 20.3117 1.76367 20.3967C1.83205 20.4674 1.91411 20.5524 1.99618 20.6232C2.07824 20.7081 2.1603 20.7789 2.25604 20.8497C2.58429 21.147 2.66635 21.2461 3.09033 21.4727C3.15872 21.5152 3.22711 21.5435 3.30917 21.5859C3.32287 21.5859 3.3365 21.6001 3.3502 21.6001C3.3502 21.6284 3.3502 21.6426 3.3639 21.6709C3.3776 21.7842 3.40493 21.8974 3.43228 22.0107C3.45961 22.1381 3.50067 22.2514 3.5417 22.3505C3.58273 22.4355 3.61009 22.5204 3.65112 22.6054C3.66482 22.6337 3.67845 22.662 3.69215 22.6762C3.74688 22.7894 3.80156 22.8885 3.85627 22.9876C3.92466 23.0868 3.99304 23.1859 4.06142 23.285C4.12981 23.3699 4.21187 23.469 4.29393 23.554C4.37599 23.6389 4.45806 23.7097 4.5538 23.7947C4.5538 23.7947 4.5675 23.8089 4.58113 23.8089C4.66319 23.8797 4.74525 23.9505 4.82732 24.0071C4.92305 24.0779 5.01879 24.1345 5.12821 24.1911C5.22395 24.2478 5.33336 24.3044 5.44278 24.3469C5.52484 24.3894 5.62058 24.4177 5.71632 24.446C5.73002 24.4602 5.74365 24.4602 5.77105 24.4743C5.82578 24.4885 5.89413 24.5026 5.94884 24.5168C5.90781 25.2813 5.89411 26.0034 6.00357 26.2582C6.12666 26.5414 6.72845 25.6777 7.33024 24.6867C7.24818 25.6636 7.19347 26.8104 7.33024 27.1502C7.48068 27.5042 8.3013 26.3998 9.01251 25.1822C18.7095 22.8602 27.5585 29.7978 28.4885 39.5954C28.3107 38.0663 26.4917 37.2168 25.6574 37.4292C25.2471 38.4769 24.5495 39.8219 23.428 40.6573C23.5238 39.7228 23.4828 38.7601 23.2913 37.8256C22.9904 39.1282 22.4023 40.3458 21.5953 41.3935C20.296 41.4926 18.9967 40.8413 18.3128 39.8644C18.2581 39.8219 18.2445 39.737 18.2034 39.6804C18.1624 39.5812 18.1214 39.4821 18.094 39.383C18.053 39.2839 18.0256 39.1848 18.0119 39.0857C17.9982 38.9866 17.9982 38.8875 17.9982 38.7742C17.9982 38.7034 17.9982 38.6326 17.9982 38.5618C18.0119 38.4627 18.0393 38.3636 18.0666 38.2645C18.094 38.1654 18.1214 38.0663 18.1624 37.9672C18.2171 37.8681 18.2581 37.769 18.3265 37.6699C18.559 36.9903 18.559 36.4381 18.135 36.1124C18.053 36.0558 17.9709 36.0133 17.8751 35.9709C17.8204 35.9567 17.7521 35.9284 17.6974 35.9142C17.6563 35.9 17.629 35.8859 17.5879 35.8717C17.4922 35.8434 17.3965 35.8151 17.3007 35.8009C17.205 35.7726 17.1092 35.7585 17.0135 35.7585C16.9178 35.7443 16.8083 35.7302 16.7126 35.7302C16.6442 35.7302 16.5758 35.7443 16.5075 35.7443C16.398 35.7443 16.3023 35.7585 16.2066 35.7868C16.1108 35.801 16.0151 35.8151 15.9193 35.8435C15.8236 35.8718 15.7279 35.9001 15.6321 35.9426C15.5364 35.9851 15.4543 36.0275 15.3586 36.07C15.2765 36.1125 15.1945 36.1691 15.0987 36.2116C11.912 38.3637 13.8131 43.404 15.9877 44.8623C15.1671 45.0181 14.3328 45.2022 14.1003 45.3862C14.0866 45.4004 14.073 45.4145 14.073 45.4145C14.6611 45.7826 15.2766 46.0941 15.9194 46.3631C16.7947 46.6604 17.7247 46.9294 18.135 47.0427V47.0569C19.2702 47.2976 20.4191 47.3825 21.5816 47.3117C27.6405 46.8728 32.6053 42.1015 33.5079 35.8152C33.5353 35.9426 33.5627 36.0558 33.59 36.1833C33.631 36.4381 33.6857 36.7071 33.7131 36.9761V36.9903C33.7404 37.1178 33.7541 37.2452 33.7678 37.3585V37.4151C33.7815 37.5425 33.7952 37.67 33.7952 37.7832C33.8089 37.939 33.8225 38.0947 33.8225 38.2505V38.477C33.8225 38.5478 33.8362 38.6327 33.8362 38.7035C33.8362 38.7885 33.8225 38.8734 33.8225 38.9584V39.1566C33.8225 39.2557 33.8088 39.3406 33.8088 39.4398C33.8088 39.4964 33.8088 39.553 33.7951 39.6238C33.7951 39.7229 33.7814 39.822 33.7814 39.9353C33.7677 39.9778 33.7677 40.0202 33.7677 40.0627C33.754 40.176 33.7403 40.2751 33.7266 40.3884C33.7266 40.4308 33.7266 40.4733 33.7129 40.5158C33.6992 40.6574 33.6719 40.7848 33.6582 40.9264V40.9406V40.9548C33.6309 41.0822 33.6035 41.2238 33.5762 41.3512V41.3937C33.5488 41.5211 33.5214 41.6485 33.4941 41.7759C33.4941 41.7901 33.4804 41.8184 33.4804 41.8326C33.4531 41.96 33.4257 42.0874 33.3847 42.2149V42.2573C33.3436 42.3989 33.3026 42.5263 33.2752 42.6538C33.2616 42.6679 33.2616 42.6821 33.2616 42.6821C33.2205 42.8237 33.1795 42.9652 33.1385 43.1068C33.0837 43.2484 33.0427 43.3758 32.988 43.5174C32.9333 43.659 32.8923 43.8006 32.8376 43.928C32.7828 44.0696 32.7282 44.197 32.6735 44.3386H32.6597C32.605 44.466 32.5503 44.6076 32.4819 44.735C32.4682 44.7775 32.4546 44.8058 32.4409 44.8341C32.4272 44.8483 32.4272 44.8624 32.4136 44.8766C31.5246 46.7314 30.2116 48.3596 28.5703 49.6338C28.4609 49.7046 28.3515 49.7896 28.2421 49.8745C28.2148 49.9028 28.1737 49.917 28.1464 49.9453C28.0506 50.0161 27.9549 50.0869 27.8455 50.1577L27.8865 50.2426H27.9002C28.0917 50.2143 28.2831 50.186 28.4746 50.1577H28.4883C28.8439 50.101 29.1995 50.0302 29.5551 49.9595C29.6509 49.9453 29.7603 49.917 29.856 49.8887C29.9244 49.8745 29.9791 49.8604 30.0475 49.8462C30.1432 49.832 30.239 49.8037 30.3347 49.7895C30.4168 49.7612 30.4988 49.7471 30.5809 49.7187C31.9486 49.3789 33.2753 48.9117 34.5472 48.3595C32.3726 51.4319 29.4594 53.9096 26.0538 55.5378C27.6267 55.4246 29.1995 55.1555 30.7177 54.7025C36.2295 53.0176 40.866 49.1807 43.6424 44.0129C43.0816 47.2835 41.8234 50.3983 39.9633 53.1167C41.29 52.2106 42.5072 51.1629 43.615 49.9736C46.6787 46.6605 48.6892 42.4555 49.373 37.939C49.8381 40.176 49.9748 42.4838 49.7697 44.7633C59.6444 30.5059 50.5903 15.7246 46.8018 11.831C46.7881 11.8027 46.7744 11.7885 46.7744 11.7602C46.7607 11.7744 46.7607 11.7744 46.7607 11.7885C46.7607 11.7743 46.7607 11.7743 46.747 11.7602C46.747 11.9301 46.7333 12.1 46.7197 12.2699C46.6787 12.5956 46.6376 12.907 46.5829 13.2185C46.5145 13.53 46.4325 13.8415 46.3504 14.153C46.2547 14.4503 46.1453 14.7618 46.0222 15.0591C45.8991 15.3423 45.7623 15.6396 45.6119 15.9228C45.4614 16.1918 45.2973 16.4749 45.1195 16.7298C44.9417 16.9988 44.7502 17.2537 44.5587 17.4943C44.3536 17.7492 44.1348 17.9757 43.9159 18.2023C43.7791 18.3297 43.6561 18.443 43.5193 18.5562C43.4099 18.6553 43.3141 18.7403 43.2047 18.8394C42.9585 19.0376 42.7123 19.2217 42.4388 19.3916C42.1789 19.5615 41.9054 19.7314 41.6319 19.8729C41.3447 20.0145 41.0574 20.142 40.7702 20.2694C40.483 20.3826 40.1821 20.4818 39.8812 20.5667C39.5803 20.6517 39.2658 20.7224 38.9649 20.7791C38.6503 20.8357 38.3357 20.864 38.0348 20.8923C37.816 20.9065 37.5972 20.9206 37.3783 20.9206C37.0638 20.9206 36.7492 20.8923 36.4483 20.864C36.1337 20.8357 35.8192 20.7932 35.5183 20.7224C35.2037 20.6657 34.9028 20.5808 34.6019 20.4817H34.5882C34.8891 20.4534 35.19 20.4251 35.4909 20.3684C35.8055 20.3118 36.1063 20.241 36.4072 20.1561C36.7081 20.0711 37.009 19.972 37.2963 19.8587C37.5971 19.7455 37.8844 19.6039 38.1579 19.4623C38.4451 19.3207 38.705 19.165 38.9785 18.9951C39.2384 18.811 39.4982 18.627 39.7444 18.4287C39.9906 18.2305 40.2231 18.0182 40.442 17.7916C40.6745 17.5792 40.8796 17.3386 41.0848 17.0979C41.2899 16.843 41.4814 16.5882 41.6592 16.3333C41.6865 16.2908 41.7139 16.2342 41.7413 16.1917C41.878 15.9652 42.0148 15.7387 42.1379 15.5121C42.2883 15.229 42.4251 14.9458 42.5482 14.6485C42.6713 14.3511 42.7807 14.0538 42.8765 13.7423C42.9722 13.445 43.0406 13.1335 43.109 12.822C43.1637 12.4964 43.2184 12.1849 43.2457 11.8734C43.2731 11.5478 43.3005 11.2221 43.3005 10.9107C43.3005 10.6841 43.2867 10.4576 43.2731 10.2311C43.2458 9.90543 43.2047 9.59394 43.1637 9.28246C43.109 8.95682 43.0406 8.64534 42.9586 8.33385C42.8628 8.03653 42.7671 7.72504 42.6577 7.42772C42.5482 7.13039 42.4115 6.83306 42.2747 6.54989C42.1243 6.26673 41.9738 5.98356 41.8097 5.71456C41.6319 5.44555 41.4541 5.1907 41.2626 4.93584C41.0575 4.69515 40.8523 4.45446 40.6335 4.21377C40.5241 4.10051 40.401 3.97308 40.2779 3.85982C39.6624 3.36427 39.0196 2.89704 38.3768 2.47229C38.281 2.41564 38.199 2.37318 38.1032 2.33071C37.6519 2.03339 37.2279 1.87756 36.8039 1.73598Z" fill="black"/>
</svg>
