<svg width="57" height="56" viewBox="0 0 57 56" fill="none" xmlns="http://www.w3.org/2000/svg">
<g clip-path="url(#clip0_204_157)">
<path d="M56.4895 27.3831C56.3373 18.0206 51.117 8.90486 43.0408 4.10461C36.6778 0.141739 28.64 -0.924886 21.4003 0.903864C10.5039 3.64699 1.81689 13.5152 0.712643 24.7625C-0.659357 35.385 4.71314 46.4327 13.8945 51.8805C22.886 57.519 35.1159 57.2906 43.907 51.3555C51.8319 46.2122 56.7468 36.8305 56.4808 27.391L56.4895 27.3831ZM30.0488 51.8437C17.3236 53.1011 5.01764 42.3194 4.67377 29.5557C3.71127 19.1931 10.5406 8.94424 20.2943 5.51511C33.9723 0.0288637 50.774 10.1631 52.1836 24.8325C54.3939 38.0135 43.4214 51.4325 30.0488 51.8437ZM21.675 26.5825L40.0763 11.5325L30.1328 26.6201C27.3135 26.6201 24.4943 26.621 21.675 26.5825ZM26.8489 29.365L35.3066 29.4035L16.9054 44.4911L26.8489 29.365Z" fill="#010101"/>
</g>
<defs>
<clipPath id="clip0_204_157">
<rect width="56" height="56" fill="white" transform="translate(0.5)"/>
</clipPath>
</defs>
</svg>
